<?xml version="1.0" encoding="utf-8" standalone="no"?>
<!DOCTYPE svg PUBLIC "-//W3C//DTD SVG 1.1//EN"
  "http://www.w3.org/Graphics/SVG/1.1/DTD/svg11.dtd">
<svg xmlns:xlink="http://www.w3.org/1999/xlink" width="453.6pt" height="338.4pt" viewBox="0 0 453.6 338.4" xmlns="http://www.w3.org/2000/svg" version="1.1">
 <metadata>
  <rdf:RDF xmlns:dc="http://purl.org/dc/elements/1.1/" xmlns:cc="http://creativecommons.org/ns#" xmlns:rdf="http://www.w3.org/1999/02/22-rdf-syntax-ns#">
   <cc:Work>
    <dc:type rdf:resource="http://purl.org/dc/dcmitype/StillImage"/>
    <dc:date>2026-02-19T16:26:35.674154</dc:date>
    <dc:format>image/svg+xml</dc:format>
    <dc:creator>
     <cc:Agent>
      <dc:title>Matplotlib v3.10.8, https://matplotlib.org/</dc:title>
     </cc:Agent>
    </dc:creator>
   </cc:Work>
  </rdf:RDF>
 </metadata>
 <defs>
  <style type="text/css">*{stroke-linejoin: round; stroke-linecap: butt}</style>
 </defs>
 <g id="figure_1">
  <g id="patch_1">
   <path d="M 0 338.4 
L 453.6 338.4 
L 453.6 0 
L 0 0 
z
" style="fill: #ffffff"/>
  </g>
  <g id="axes_1">
   <g id="LineCollection_1">
    <path d="M 214.700826 35.315702 
L 214.700826 169.2 
" clip-path="url(#p6cf71276e0)" style="fill: none; stroke: #000000; stroke-opacity: 0.25"/>
    <path d="M 214.700826 35.315702 
L 238.899174 169.2 
" clip-path="url(#p6cf71276e0)" style="fill: none; stroke: #000000; stroke-opacity: 0.25"/>
    <path d="M 238.899174 35.315702 
L 214.700826 169.2 
" clip-path="url(#p6cf71276e0)" style="fill: none; stroke: #000000; stroke-opacity: 0.25"/>
    <path d="M 238.899174 35.315702 
L 238.899174 169.2 
" clip-path="url(#p6cf71276e0)" style="fill: none; stroke: #000000; stroke-opacity: 0.25"/>
    <path d="M 214.700826 169.2 
L 45.312397 303.084298 
" clip-path="url(#p6cf71276e0)" style="fill: none; stroke: #000000; stroke-opacity: 0.25"/>
    <path d="M 214.700826 169.2 
L 69.510744 303.084298 
" clip-path="url(#p6cf71276e0)" style="fill: none; stroke: #000000; stroke-opacity: 0.25"/>
    <path d="M 214.700826 169.2 
L 93.709091 303.084298 
" clip-path="url(#p6cf71276e0)" style="fill: none; stroke: #000000; stroke-opacity: 0.25"/>
    <path d="M 214.700826 169.2 
L 117.907438 303.084298 
" clip-path="url(#p6cf71276e0)" style="fill: none; stroke: #000000; stroke-opacity: 0.25"/>
    <path d="M 214.700826 169.2 
L 142.105785 303.084298 
" clip-path="url(#p6cf71276e0)" style="fill: none; stroke: #000000; stroke-opacity: 0.25"/>
    <path d="M 214.700826 169.2 
L 166.304132 303.084298 
" clip-path="url(#p6cf71276e0)" style="fill: none; stroke: #000000; stroke-opacity: 0.25"/>
    <path d="M 214.700826 169.2 
L 190.502479 303.084298 
" clip-path="url(#p6cf71276e0)" style="fill: none; stroke: #000000; stroke-opacity: 0.25"/>
    <path d="M 214.700826 169.2 
L 214.700826 303.084298 
" clip-path="url(#p6cf71276e0)" style="fill: none; stroke: #000000; stroke-opacity: 0.25"/>
    <path d="M 238.899174 169.2 
L 238.899174 303.084298 
" clip-path="url(#p6cf71276e0)" style="fill: none; stroke: #000000; stroke-opacity: 0.25"/>
    <path d="M 238.899174 169.2 
L 263.097521 303.084298 
" clip-path="url(#p6cf71276e0)" style="fill: none; stroke: #000000; stroke-opacity: 0.25"/>
    <path d="M 238.899174 169.2 
L 287.295868 303.084298 
" clip-path="url(#p6cf71276e0)" style="fill: none; stroke: #000000; stroke-opacity: 0.25"/>
    <path d="M 238.899174 169.2 
L 311.494215 303.084298 
" clip-path="url(#p6cf71276e0)" style="fill: none; stroke: #000000; stroke-opacity: 0.25"/>
    <path d="M 238.899174 169.2 
L 335.692562 303.084298 
" clip-path="url(#p6cf71276e0)" style="fill: none; stroke: #000000; stroke-opacity: 0.25"/>
    <path d="M 238.899174 169.2 
L 359.890909 303.084298 
" clip-path="url(#p6cf71276e0)" style="fill: none; stroke: #000000; stroke-opacity: 0.25"/>
    <path d="M 238.899174 169.2 
L 384.089256 303.084298 
" clip-path="url(#p6cf71276e0)" style="fill: none; stroke: #000000; stroke-opacity: 0.25"/>
    <path d="M 238.899174 169.2 
L 408.287603 303.084298 
" clip-path="url(#p6cf71276e0)" style="fill: none; stroke: #000000; stroke-opacity: 0.25"/>
   </g>
   <g id="PathCollection_1">
    <defs>
     <path id="md1551117e2" d="M 0 4.472136 
C 1.186024 4.472136 2.323632 4.000923 3.162278 3.162278 
C 4.000923 2.323632 4.472136 1.186024 4.472136 0 
C 4.472136 -1.186024 4.000923 -2.323632 3.162278 -3.162278 
C 2.323632 -4.000923 1.186024 -4.472136 0 -4.472136 
C -1.186024 -4.472136 -2.323632 -4.000923 -3.162278 -3.162278 
C -4.000923 -2.323632 -4.472136 -1.186024 -4.472136 0 
C -4.472136 1.186024 -4.000923 2.323632 -3.162278 3.162278 
C -2.323632 4.000923 -1.186024 4.472136 0 4.472136 
z
" style="stroke: #ff7f0e"/>
    </defs>
    <g clip-path="url(#p6cf71276e0)">
     <use xlink:href="#md1551117e2" x="214.700826" y="35.315702" style="fill: #ff7f0e; stroke: #ff7f0e"/>
     <use xlink:href="#md1551117e2" x="238.899174" y="35.315702" style="fill: #ff7f0e; stroke: #ff7f0e"/>
     <use xlink:href="#md1551117e2" x="214.700826" y="169.2" style="fill: #ff7f0e; stroke: #ff7f0e"/>
     <use xlink:href="#md1551117e2" x="238.899174" y="169.2" style="fill: #ff7f0e; stroke: #ff7f0e"/>
    </g>
   </g>
   <g id="PathCollection_2">
    <defs>
     <path id="m10a1e2a232" d="M 0 2.738613 
C 0.726289 2.738613 1.422928 2.450055 1.936492 1.936492 
C 2.450055 1.422928 2.738613 0.726289 2.738613 0 
C 2.738613 -0.726289 2.450055 -1.422928 1.936492 -1.936492 
C 1.422928 -2.450055 0.726289 -2.738613 0 -2.738613 
C -0.726289 -2.738613 -1.422928 -2.450055 -1.936492 -1.936492 
C -2.450055 -1.422928 -2.738613 -0.726289 -2.738613 0 
C -2.738613 0.726289 -2.450055 1.422928 -1.936492 1.936492 
C -1.422928 2.450055 -0.726289 2.738613 0 2.738613 
z
" style="stroke: #1f77b4"/>
    </defs>
    <g clip-path="url(#p6cf71276e0)">
     <use xlink:href="#m10a1e2a232" x="45.312397" y="303.084298" style="fill: #1f77b4; stroke: #1f77b4"/>
     <use xlink:href="#m10a1e2a232" x="69.510744" y="303.084298" style="fill: #1f77b4; stroke: #1f77b4"/>
     <use xlink:href="#m10a1e2a232" x="93.709091" y="303.084298" style="fill: #1f77b4; stroke: #1f77b4"/>
     <use xlink:href="#m10a1e2a232" x="117.907438" y="303.084298" style="fill: #1f77b4; stroke: #1f77b4"/>
     <use xlink:href="#m10a1e2a232" x="142.105785" y="303.084298" style="fill: #1f77b4; stroke: #1f77b4"/>
     <use xlink:href="#m10a1e2a232" x="166.304132" y="303.084298" style="fill: #1f77b4; stroke: #1f77b4"/>
     <use xlink:href="#m10a1e2a232" x="190.502479" y="303.084298" style="fill: #1f77b4; stroke: #1f77b4"/>
     <use xlink:href="#m10a1e2a232" x="214.700826" y="303.084298" style="fill: #1f77b4; stroke: #1f77b4"/>
     <use xlink:href="#m10a1e2a232" x="238.899174" y="303.084298" style="fill: #1f77b4; stroke: #1f77b4"/>
     <use xlink:href="#m10a1e2a232" x="263.097521" y="303.084298" style="fill: #1f77b4; stroke: #1f77b4"/>
     <use xlink:href="#m10a1e2a232" x="287.295868" y="303.084298" style="fill: #1f77b4; stroke: #1f77b4"/>
     <use xlink:href="#m10a1e2a232" x="311.494215" y="303.084298" style="fill: #1f77b4; stroke: #1f77b4"/>
     <use xlink:href="#m10a1e2a232" x="335.692562" y="303.084298" style="fill: #1f77b4; stroke: #1f77b4"/>
     <use xlink:href="#m10a1e2a232" x="359.890909" y="303.084298" style="fill: #1f77b4; stroke: #1f77b4"/>
     <use xlink:href="#m10a1e2a232" x="384.089256" y="303.084298" style="fill: #1f77b4; stroke: #1f77b4"/>
     <use xlink:href="#m10a1e2a232" x="408.287603" y="303.084298" style="fill: #1f77b4; stroke: #1f77b4"/>
    </g>
   </g>
  </g>
 </g>
 <defs>
  <clipPath id="p6cf71276e0">
   <rect x="7.2" y="7.2" width="439.2" height="324"/>
  </clipPath>
 </defs>
</svg>
